 <svg width="707px" height="641px" viewBox="0 0 718 642" fill="none" xmlns="http://www.w3.org/2000/svg">
      <path d="M262.643 169.963H265.674V163.144H236.882V169.963H240.67M262.643 169.963V273.008H240.67V169.963M262.643 169.963H240.67" stroke="#263955" stroke-width="3"/>
      <path d="M474.037 1.75769L582.385 122.987H662.7L474.037 1.75769ZM474.037 1.75769L283.858 122.987L90.6489 120.714L474.037 1.75769Z" stroke="#263955" stroke-width="3"/>idth="1280"
      <path d="M496.009 169.206L452.822 212.394H496.009L452.822 169.206H496.009Z" stroke="#263955" stroke-width="3"/>
      <path d="M495.252 211.636L452.064 254.824H495.252L452.064 211.636H495.252Z" stroke="#263955" stroke-width="3"/>
      <path d="M495.252 254.066L452.064 297.254H495.252L452.064 254.066H495.252Z" stroke="#263955" stroke-width="3"/>
      <path d="M495.252 296.496L452.064 339.684H495.252L452.064 296.496H495.252Z" stroke="#263955" stroke-width="3"/>
      <path d="M495.252 338.927L452.064 382.115H495.252L452.064 338.927H495.252Z" stroke="#263955" stroke-width="3"/>
      <path d="M495.252 381.357L452.064 424.545H495.252L452.064 381.357H495.252Z" stroke="#263955" stroke-width="3"/>
      <path d="M495.252 423.787L452.064 466.975H495.252L452.064 423.787H495.252Z" stroke="#263955" stroke-width="3"/>
      <path d="M495.252 466.218L452.064 509.405H495.252L452.064 466.218H495.252Z" stroke="#263955" stroke-width="3"/>
      <path d="M495.252 508.648L452.064 551.836H495.252L452.064 508.648H495.252Z" stroke="#263955" stroke-width="3"/>
      <path d="M495.252 551.078L452.064 594.266H495.252L452.064 551.078H495.252Z" stroke="#263955" stroke-width="3"/>
      <path d="M495.252 593.508L452.064 636.696H495.252L452.064 593.508H495.252Z" stroke="#263955" stroke-width="3"/>
      <rect x="-3" y="3" width="53.0993" height="475.887" transform="matrix(-1 0 0 1 498.344 160.113)" stroke="#263955" stroke-width="6"/>
      <path d="M80.7991 123.745L2.00002 158.598H80.7991M80.7991 123.745H122.093M80.7991 123.745L122.093 158.598M80.7991 123.745V158.598M402.057 123.745L439.941 158.598M402.057 123.745V158.598M402.057 123.745H360.384M439.941 158.598H402.057M439.941 158.598H455.852M510.405 158.598L545.259 123.745M510.405 158.598H545.259M510.405 158.598H492.221M545.259 123.745H585.037M545.259 123.745L585.037 158.598M545.259 123.745V158.598M667.246 123.745L708.918 158.598H667.246M667.246 123.745V158.598M667.246 123.745H624.816M667.246 158.598L624.816 123.745M667.246 158.598H624.816M624.816 123.745V158.598M624.816 123.745H585.037M624.816 158.598L585.037 123.745M624.816 158.598H585.037M585.037 123.745V158.598M585.037 158.598H545.259M402.057 158.598L360.384 123.745M402.057 158.598H360.384M360.384 123.745V158.598M360.384 123.745H319.469M360.384 158.598L319.469 123.745M360.384 158.598H319.469M319.469 123.745V158.598M319.469 123.745H280.827M319.469 158.598L280.827 123.745M319.469 158.598H280.827M280.827 123.745V158.598M280.827 123.745H240.67M280.827 158.598L240.67 123.745M280.827 158.598H240.67M240.67 123.745V158.598M240.67 123.745H199.755M240.67 158.598L199.755 123.745M240.67 158.598H199.755M199.755 123.745V158.598M199.755 123.745H163.387M199.755 158.598L163.387 123.745M199.755 158.598H163.387M163.387 123.745V158.598M163.387 123.745H122.093M163.387 158.598L122.093 123.745M163.387 158.598H122.093M122.093 123.745V158.598M122.093 158.598H80.7991M492.221 158.598H455.852M492.221 158.598V118.82M492.221 158.598L455.852 118.82M492.221 79.0414H455.852M492.221 79.0414V118.82M492.221 79.0414L455.852 118.82M492.221 79.0414L461.149 56.3109M492.221 79.0414L486.925 56.3109M455.852 79.0414L492.221 118.82M455.852 79.0414V118.82M455.852 79.0414L461.149 56.3109M455.852 79.0414L486.925 56.3109M455.852 158.598V118.82M455.852 158.598L492.221 118.82M492.221 118.82H455.852M461.149 56.3109L482.864 38.8842M461.149 56.3109L465.209 38.8842M486.925 56.3109L482.864 38.8842M486.925 56.3109L465.209 38.8842M482.864 38.8842L474.037 1L465.209 38.8842M482.864 38.8842H465.209" stroke="#263955" stroke-width="6"/>
      <rect x="239" y="273" width="25" height="20" fill="#263955"/>
      <path d="M251.5 300.206L239 293H264L253.965 300.206V308.818C251.852 306.533 243.738 310.224 248.155 316.552C251.689 321.613 257.491 316.669 259.951 313.564C259.951 320.242 253.965 322 251.5 322C249.035 322 243.049 321.121 243.049 313.564C243.049 307.518 248.683 305.537 251.5 305.303V300.206Z" fill="#263955"/>
      <path d="M257.5 326.5C257.5 330.436 254.749 333.5 251.5 333.5C248.251 333.5 245.5 330.436 245.5 326.5C245.5 322.564 248.251 319.5 251.5 319.5C254.749 319.5 257.5 322.564 257.5 326.5Z" stroke="#263955"/>
      </svg>