 <svg width="935" height="146" viewBox="0 0 935 146" fill="none" xmlns="http://www.w3.org/2000/svg">
                          <path d="M934.574 176H0V146.979H8.04036V153.532H16.5537V131.064H58.6473V89.4043L87.971 77.7021V131.064H98.8491V71.1489H108.781V46.8085H120.132V38.8511H139.524V49.617H146.145V35.1064H153.24V49.617H159.861V42.1277H168.848V51.0213H180.199V87.5319H208.103V43.5319H213.306V31.8298H222.765V43.5319H235.062V46.8085H245.94V107.66H264.859V131.064H292.291V80.0426H299.385V66.9362H308.371V71.1489H317.358V76.766H327.29V80.0426H335.803V120.766H343.371V131.064H377.897V71.1489H394.924V38.383H429.923V131.064H448.841V94.5532H455.463V78.1702H464.449V94.5532H468.233V107.66H481.003V131.064H489.043V97.8298H501.813V54.766H518.367V22.4681H553.839V131.064H571.339V17.3191H560.933V8.89362H571.339V6.55319H574.649V0H587.892V6.55319H611.54V12.6383H619.108V17.3191H611.54V131.064H621.946V104.851H635.661V82.383H660.255V104.851H673.971V114.681H660.255V131.064H699.038V72.5532H691.944V67.4043H739.24V72.5532H734.038V106.255H748.699V131.064H783.226V114.681H803.563V106.255H814.441V67.4043H826.265V106.255H839.508V131.064H883.494V114.681H899.102V144.17H916.601V159.617H934.574V176Z" fill="url(#paint0_linear_60_109)"></path>
                          <defs>
                          <lineargradient id="paint0_linear_60_109" x1="410.5" y1="208.5" x2="122.5" y2="-6.30854e-06" gradientUnits="userSpaceOnUse">
                          <stop stop-color="#567EBB"></stop>
                          <stop offset="1" stop-color="#2B4C7E"></stop>
                          </lineargradient>
                          </defs>
                      </svg>