<svg   height="258" viewBox="0 0 1280 258" fill="none" xmlns="http://www.w3.org/2000/svg">
      <path d="M1322 258H-42V215.457H-30.2652V225.064H-17.8401V192.128H43.5951V131.059L86.3927 113.904V192.128H102.269V104.298H116.765V68.617H133.332V56.9521H161.634V72.734H171.298V51.4628H181.652V72.734H191.316V61.7553H204.431V74.7926H220.998V128.314H261.725V63.8138H269.318V46.6596H283.124V63.8138H301.071V68.617H316.947V157.819H344.559V192.128H384.595V117.335H394.949V98.1223H408.065V104.298H421.18V112.532H435.676V117.335H448.101V177.032H459.146V192.128H509.536V104.298H534.387V56.266H585.468V192.128H613.079V138.606H622.743V114.59H635.858V138.606H641.381V157.819H660.018V192.128H671.753V143.41H690.391V80.2819H714.551V32.9362H766.322V192.128H791.862V25.3883H776.676V13.0372H791.862V9.60638H796.694V0H816.022V9.60638H850.536V18.5266H861.581V25.3883H850.536V192.128H865.723V153.702H885.741V120.766H921.636V153.702H941.654V168.112H921.636V192.128H978.239V106.356H967.885V98.8085H1036.91V106.356H1029.32V155.761H1050.72V192.128H1101.11V168.112H1130.79V155.761H1146.67V98.8085H1163.93V155.761H1183.25V192.128H1247.45V168.112H1270.23V211.34H1295.77V233.984H1322V258Z" fill="#2B4C7E"/>
       </svg>