 <svg class="svg-icon svg-height"  height="269" viewBox="0 0 1280 269" fill="none" xmlns="http://www.w3.org/2000/svg" >
      <path  d="M0 269V182.469H16.9246V210.058H31.3418V182.469H70.8325V172.436H116.592V228.869H139.158V214.448H161.097V205.669H176.141V228.869H186.17V196.263H213.124V129.17H271.42V196.263H338.492V104.089H361.685V55.8065H393.026V196.263H403.056V42.0117H464.486V172.436H477.023V196.263H493.32V147.354H551.616V205.669H563.526V0H624.329V49.5361H703.937V161.149H729.638V205.669H789.187V135.441H797.963V75.8718H891.988V115.375H913.301V184.977H941.508V196.263H970.343V184.977H987.267V129.17H1080.67V216.956H1112.63V205.669H1145.86V196.263H1169.68V205.669H1187.23V228.242H1219.2V184.977H1251.17V196.263H1280V269H0Z" fill="#263955"/>
      </svg>