<svg width="548"  height="490" viewBox="0 0 548 490" fill="none" xmlns="http://www.w3.org/2000/svg">
              <path d="M348.127 130.396H345.824V125.214H367.703V130.396H364.825M348.127 130.396V208.701H364.825V130.396M348.127 130.396H364.825" stroke="#DCE0E6" stroke-width="3"/>
              <path d="M187.488 2.57568L105.153 94.6985H44.1219L187.488 2.57568ZM187.488 2.57568L332.006 94.6985L478.827 92.9712L187.488 2.57568Z" stroke="#DCE0E6" stroke-width="3"/>
              <path d="M170.791 129.82L203.61 162.639H170.791L203.61 129.82H170.791Z" stroke="#DCE0E6" stroke-width="3"/>
              <path d="M171.367 162.063L204.185 194.882H171.367L204.185 162.063H171.367Z" stroke="#DCE0E6" stroke-width="3"/>
              <path d="M171.367 194.307L204.185 227.125H171.367L204.185 194.307H171.367Z" stroke="#DCE0E6" stroke-width="3"/>
              <path d="M171.367 226.55L204.185 259.369H171.367L204.185 226.55H171.367Z" stroke="#DCE0E6" stroke-width="3"/>
              <path d="M171.367 258.792L204.185 291.611H171.367L204.185 258.792H171.367Z" stroke="#DCE0E6" stroke-width="3"/>
              <path d="M171.367 291.036L204.185 323.854H171.367L204.185 291.036H171.367Z" stroke="#DCE0E6" stroke-width="3"/>
              <path d="M171.367 323.278L204.185 356.097H171.367L204.185 323.278H171.367Z" stroke="#DCE0E6" stroke-width="3"/>
              <path d="M171.367 355.521L204.185 388.34H171.367L204.185 355.521H171.367Z" stroke="#DCE0E6" stroke-width="3"/>
              <path d="M171.367 387.765L204.185 420.583H171.367L204.185 387.765H171.367Z" stroke="#DCE0E6" stroke-width="3"/>
              <path d="M171.367 420.007L204.185 452.826H171.367L204.185 420.007H171.367Z" stroke="#DCE0E6" stroke-width="3"/>
              <path d="M171.367 452.25L204.185 485.069H171.367L204.185 452.25H171.367Z" stroke="#DCE0E6" stroke-width="3"/>
              <rect x="167.457" y="125.911" width="38.9099" height="360.188" stroke="#DCE0E6" stroke-width="6"/>
              <path d="M486.312 95.2744L546.191 121.76H486.312M486.312 95.2744H454.932M486.312 95.2744L454.932 121.76M486.312 95.2744V121.76M242.186 95.2744L213.398 121.76M242.186 95.2744V121.76M242.186 95.2744H273.853M213.398 121.76H242.186M213.398 121.76H201.306M159.851 121.76L133.366 95.2744M159.851 121.76H133.366M159.851 121.76H173.67M133.366 95.2744H103.138M133.366 95.2744L103.138 121.76M133.366 95.2744V121.76M40.6672 95.2744L9 121.76H40.6672M40.6672 95.2744V121.76M40.6672 95.2744H72.9102M40.6672 121.76L72.9102 95.2744M40.6672 121.76H72.9102M72.9102 95.2744V121.76M72.9102 95.2744H103.138M72.9102 121.76L103.138 95.2744M72.9102 121.76H103.138M103.138 95.2744V121.76M103.138 121.76H133.366M242.186 121.76L273.853 95.2744M242.186 121.76H273.853M273.853 95.2744V121.76M273.853 95.2744H304.945M273.853 121.76L304.945 95.2744M273.853 121.76H304.945M304.945 95.2744V121.76M304.945 95.2744H334.309M304.945 121.76L334.309 95.2744M304.945 121.76H334.309M334.309 95.2744V121.76M334.309 95.2744H364.825M334.309 121.76L364.825 95.2744M334.309 121.76H364.825M364.825 95.2744V121.76M364.825 95.2744H395.916M364.825 121.76L395.916 95.2744M364.825 121.76H395.916M395.916 95.2744V121.76M395.916 95.2744H423.553M395.916 121.76L423.553 95.2744M395.916 121.76H423.553M423.553 95.2744V121.76M423.553 95.2744H454.932M423.553 121.76L454.932 95.2744M423.553 121.76H454.932M454.932 95.2744V121.76M454.932 121.76H486.312M173.67 121.76H201.306M173.67 121.76V91.5319M173.67 121.76L201.306 91.5319M173.67 61.3041H201.306M173.67 61.3041V91.5319M173.67 61.3041L201.306 91.5319M173.67 61.3041L197.282 44.0311M173.67 61.3041L177.694 44.0311M201.306 61.3041L173.67 91.5319M201.306 61.3041V91.5319M201.306 61.3041L197.282 44.0311M201.306 61.3041L177.694 44.0311M201.306 121.76V91.5319M201.306 121.76L173.67 91.5319M173.67 91.5319H201.306M197.282 44.0311L180.78 30.7884M197.282 44.0311L194.196 30.7884M177.694 44.0311L180.78 30.7884M177.694 44.0311L194.196 30.7884M180.78 30.7884L187.488 2L194.196 30.7884M180.78 30.7884H194.196" stroke="#DCE0E6" stroke-width="6"/>
              <rect width="18.9976" height="15.1981" transform="matrix(-1 0 0 1 366.094 208.694)" fill="#DCE0E6"/>
              <path d="M356.595 229.369L366.094 223.893H347.096L354.722 229.369V235.913C356.327 234.177 362.494 236.981 359.137 241.79C356.451 245.636 352.042 241.879 350.173 239.519C350.173 244.594 354.722 245.93 356.595 245.93C358.468 245.93 363.017 245.262 363.017 239.519C363.017 234.925 358.736 233.42 356.595 233.242V229.369Z" fill="#DCE0E6"/>
          </svg>  