<svg class="svg-logo" width="816" height="156" viewBox="0 0 816 156" fill="none" xmlns="http://www.w3.org/2000/svg">
    <path d="M97.9386 93.4724H104.425V0L27.5419 50.2986V58.274L97.9386 12.1227V93.4724Z" fill="#B31F22"/>
    <path d="M48.3845 31.6892L54.7648 27.4356L0 5.95501V156H6.06135V15.3129L48.3845 31.6892Z" fill="#B31F22"/>
    <path d="M27.4355 95.2802H32.0081V110.168H44.7688V115.059H27.4355V95.2802Z" fill="black"/>
    <path d="M49.1287 115.059H53.914V44.3436L49.1287 47.6401V115.059Z" fill="black"/>
    <path d="M65.0797 115.059H60.4007V40.1964H91.2392V45.1272H65.0797V115.059Z" fill="black"/>
    <path d="M91.2392 49.2352H86.9856V110.168H69.5459V115.059H91.2392V49.2352Z" fill="black"/>
    <path d="M73.5868 53.9141H79.1165V101.554H73.5868V53.9141Z" fill="black"/>
    <mask id="path-3-outside-1_35_74" maskUnits="userSpaceOnUse" x="11.2719" y="120.483" width="212" height="8" fill="black">
    <rect fill="white" x="11.2719" y="120.483" width="212" height="8"/>
    <path d="M11.2719 120.483H222.887V124.949H11.2719V120.483Z"/>
    </mask>
    <path d="M11.2719 120.483H222.887V124.949H11.2719V120.483Z" fill="black"/>
    <path d="M222.887 121.949H11.2719V127.949H222.887V121.949Z" fill="#F5BD24" mask="url(#path-3-outside-1_35_74)"/>
    <path d="M122.747 51.9573H128.922L143.996 84.9518L159.071 51.9573H165.246V94.275H159.252V64.1865L145.51 94.275H142.483L128.68 64.1865V94.275H122.747V51.9573ZM187.261 51.9573H193.194L210.084 94.275H203.788L199.55 83.741H180.844L176.727 94.275H170.37L187.261 51.9573ZM197.855 78.595L190.227 58.7984L182.599 78.595H197.855ZM219.898 57.1638H206.76V51.9573H239.271V57.1638H226.133V94.275H219.898V57.1638ZM244.714 51.9573H250.889V70.1194H272.986V51.9573H279.161V94.275H272.986V75.3259H250.889V94.275H244.714V51.9573ZM302.725 51.9573H308.658L325.548 94.275H319.252L315.014 83.741H296.307L292.191 94.275H285.834L302.725 51.9573ZM313.319 78.595L305.691 58.7984L298.063 78.595H313.319ZM354.621 51.9573H374.054C377.807 51.9573 380.713 52.926 382.772 54.8633C384.83 56.8006 385.859 59.6258 385.859 63.3389C385.859 65.4376 385.355 67.2942 384.346 68.9086C383.377 70.4827 382.086 71.6531 380.471 72.4199C384.992 73.7518 387.252 77.0412 387.252 82.288C387.252 84.75 386.707 86.8891 385.617 88.7053C384.568 90.4811 383.115 91.8534 381.258 92.822C379.402 93.7906 377.343 94.275 375.083 94.275H354.621V51.9573ZM373.267 70.1194C375.245 70.1194 376.798 69.5745 377.928 68.4848C379.059 67.3951 379.624 65.7807 379.624 63.6416C379.624 61.1796 379.059 59.4643 377.928 58.4957C376.839 57.4867 375.144 56.9822 372.843 56.9822H360.796V70.1194H373.267ZM373.691 89.2501C376.072 89.2501 377.888 88.7254 379.139 87.6761C380.39 86.6267 381.016 84.8307 381.016 82.288C381.016 79.7453 380.35 77.9291 379.018 76.8394C377.727 75.7497 375.769 75.2048 373.146 75.2048H360.796V89.2501H373.691ZM411.13 95.1831C405.358 95.1831 400.999 93.7099 398.053 90.7636C395.107 87.777 393.633 83.6804 393.633 78.474V51.9573H399.809V78.7161C399.809 82.3082 400.818 85.0325 402.836 86.8891C404.854 88.7053 407.618 89.6134 411.13 89.6134C414.601 89.6134 417.345 88.7053 419.363 86.8891C421.381 85.0325 422.39 82.3082 422.39 78.7161V51.9573H428.565V78.474C428.565 83.6401 427.092 87.7164 424.146 90.7031C421.199 93.6897 416.861 95.1831 411.13 95.1831ZM436.149 51.9573H442.384V94.275H436.149V51.9573ZM450.279 51.9573H456.454V89.129H477.885V94.275H450.279V51.9573ZM483.328 51.9573H496.949C501.51 51.9573 505.465 52.8049 508.815 54.5C512.165 56.1952 514.728 58.6168 516.504 61.7649C518.32 64.913 519.228 68.6261 519.228 72.9043C519.228 79.9269 517.19 85.2545 513.113 88.8869C509.077 92.4789 503.407 94.275 496.102 94.275H483.328V51.9573ZM496.041 89.129C501.692 89.129 505.929 87.7366 508.755 84.9518C511.58 82.1669 512.992 78.1511 512.992 72.9043C512.992 68.061 511.6 64.2268 508.815 61.4016C506.071 58.5764 502.135 57.1638 497.01 57.1638H489.503V89.129H496.041ZM525.895 51.9573H553.804V57.1638H532.07V70.5432H548.295V75.6891H532.07V89.129H553.804V94.275H525.895V51.9573ZM560.185 51.9573H577.197C581.717 51.9573 585.188 53.0471 587.61 55.2265C590.032 57.406 591.242 60.5944 591.242 64.7919C591.242 67.8996 590.415 70.5432 588.76 72.7226C587.106 74.8617 584.765 76.3147 581.738 77.0815L591.061 94.275H584.644L575.623 77.5659H566.36V94.275H560.185V51.9573ZM576.168 72.3594C578.872 72.3594 581.011 71.7338 582.585 70.4827C584.2 69.1911 585.007 67.2942 585.007 64.7919C585.007 62.0474 584.22 60.0899 582.646 58.9195C581.112 57.749 578.953 57.1638 576.168 57.1638H566.36V72.3594H576.168ZM609.65 95.1831C607.228 95.1831 604.826 94.9611 602.445 94.5171C600.104 94.1135 598.187 93.5485 596.694 92.822V87.2523C600.568 89.0685 604.746 89.9766 609.226 89.9766C615.522 89.9766 618.67 87.8577 618.67 83.6199C618.67 82.1669 618.327 80.9965 617.641 80.1085C616.955 79.2206 615.966 78.4538 614.674 77.808C613.383 77.1219 611.284 76.1936 608.378 75.0232C604.383 73.4088 601.497 71.6329 599.721 69.6956C597.945 67.7583 597.057 65.3166 597.057 62.3703C597.057 60.1505 597.663 58.193 598.873 56.4979C600.084 54.7624 601.779 53.4305 603.959 52.5022C606.138 51.5336 608.641 51.0492 611.466 51.0492C613.766 51.0492 615.845 51.2309 617.701 51.5941C619.558 51.9573 621.374 52.5426 623.15 53.3498V58.6773C619.639 57.1033 616.087 56.3162 612.495 56.3162C609.589 56.3162 607.369 56.8409 605.835 57.8903C604.302 58.9396 603.535 60.433 603.535 62.3703C603.535 63.7021 603.858 64.8322 604.504 65.7605C605.19 66.6484 606.179 67.4556 607.47 68.1821C608.802 68.8682 610.759 69.736 613.342 70.7854C616.208 71.9558 618.468 73.0657 620.123 74.1151C621.778 75.1644 623.029 76.456 623.876 77.9896C624.764 79.483 625.208 81.3597 625.208 83.6199C625.208 87.2927 623.897 90.138 621.273 92.1561C618.65 94.1741 614.775 95.1831 609.65 95.1831Z" fill="black"/>
    <path d="M248.408 128.547C246.412 128.547 244.637 128.131 243.085 127.299C241.532 126.467 240.321 125.293 239.452 123.778C238.583 122.243 238.149 120.469 238.149 118.454C238.149 116.439 238.583 114.664 239.452 113.13C240.321 111.596 241.532 110.413 243.085 109.581C244.637 108.749 246.412 108.333 248.408 108.333C251.07 108.333 253.298 109.008 255.091 110.357V113.074C253.483 111.651 251.338 110.939 248.658 110.939C247.161 110.939 245.83 111.244 244.665 111.854C243.519 112.464 242.622 113.343 241.975 114.489C241.329 115.616 241.005 116.938 241.005 118.454C241.005 119.97 241.329 121.3 241.975 122.447C242.641 123.593 243.547 124.471 244.693 125.081C245.857 125.691 247.179 125.996 248.658 125.996C250.026 125.996 251.246 125.82 252.318 125.469C253.409 125.099 254.416 124.517 255.34 123.722V126.467C253.677 127.854 251.366 128.547 248.408 128.547ZM257.685 114.821H260.403V117.206C260.957 116.393 261.734 115.792 262.732 115.404C263.749 115.015 264.922 114.821 266.253 114.821V117.012C264.83 117.012 263.61 117.243 262.593 117.705C261.577 118.167 260.874 118.897 260.486 119.896V128.131H257.685V114.821ZM275.241 128.547C272.783 128.547 270.851 127.937 269.446 126.717C268.06 125.478 267.366 123.741 267.366 121.504C267.366 119.323 267.986 117.594 269.224 116.319C270.481 115.043 272.265 114.405 274.576 114.405C276.11 114.405 277.413 114.701 278.485 115.293C279.558 115.866 280.362 116.67 280.898 117.705C281.452 118.722 281.73 119.886 281.73 121.199V122.585H270.028C270.121 123.842 270.648 124.785 271.609 125.414C272.589 126.024 273.91 126.329 275.574 126.329C276.424 126.329 277.284 126.255 278.153 126.107C279.022 125.94 279.789 125.728 280.454 125.469V127.715C279.863 127.955 279.077 128.149 278.097 128.297C277.136 128.464 276.184 128.547 275.241 128.547ZM279.095 120.617C279.059 119.36 278.643 118.389 277.848 117.705C277.071 117.003 275.962 116.651 274.52 116.651C273.115 116.651 272.025 117.012 271.248 117.733C270.472 118.454 270.065 119.415 270.028 120.617H279.095ZM289.56 128.547C287.952 128.547 286.658 128.14 285.678 127.327C284.717 126.495 284.236 125.377 284.236 123.972C284.236 122.493 284.698 121.356 285.623 120.561C286.565 119.748 287.896 119.341 289.616 119.341C291.446 119.341 292.998 119.711 294.274 120.45V119.757C294.274 118.703 293.95 117.927 293.303 117.428C292.675 116.91 291.677 116.651 290.309 116.651C289.495 116.651 288.7 116.735 287.924 116.901C287.166 117.049 286.482 117.261 285.872 117.539V115.265C286.427 115.006 287.148 114.803 288.035 114.655C288.922 114.489 289.782 114.405 290.614 114.405C292.813 114.405 294.44 114.895 295.494 115.875C296.566 116.836 297.102 118.176 297.102 119.896V128.131H294.468V126.634C293.895 127.262 293.211 127.743 292.416 128.075C291.64 128.39 290.688 128.547 289.56 128.547ZM290.253 126.412C291.141 126.412 291.945 126.236 292.666 125.885C293.387 125.534 293.923 125.044 294.274 124.415V122.613C293.072 121.837 291.732 121.448 290.253 121.448C289.181 121.448 288.377 121.661 287.841 122.086C287.323 122.493 287.065 123.121 287.065 123.972C287.065 125.598 288.127 126.412 290.253 126.412ZM305.003 128.547C303.654 128.547 302.609 128.159 301.87 127.382C301.149 126.606 300.788 125.506 300.788 124.083V116.984H298.764V114.821H300.788V110.828H303.617V114.821H306.889V116.984H303.617V123.888C303.617 124.776 303.783 125.404 304.116 125.774C304.467 126.144 305.096 126.329 306.001 126.329C306.537 126.329 307.073 126.208 307.61 125.968V128.186C306.907 128.427 306.038 128.547 305.003 128.547ZM311.88 112.215C311.418 112.215 311.03 112.058 310.716 111.744C310.402 111.429 310.244 111.041 310.244 110.579C310.244 110.117 310.402 109.729 310.716 109.414C311.03 109.1 311.418 108.943 311.88 108.943C312.361 108.943 312.758 109.1 313.073 109.414C313.405 109.729 313.572 110.117 313.572 110.579C313.572 111.041 313.405 111.429 313.073 111.744C312.758 112.058 312.361 112.215 311.88 112.215ZM310.466 114.821H313.322V128.131H310.466V114.821ZM317.176 114.821H319.894V116.735C320.522 115.94 321.289 115.357 322.195 114.988C323.119 114.6 324.081 114.405 325.079 114.405C326.854 114.405 328.175 114.877 329.044 115.82C329.913 116.762 330.347 118.029 330.347 119.618V128.131H327.547V119.896C327.547 117.733 326.512 116.651 324.441 116.651C323.554 116.651 322.722 116.864 321.946 117.289C321.188 117.696 320.532 118.324 319.977 119.175V128.131H317.176V114.821ZM340.762 134.508C339.856 134.508 338.969 134.434 338.1 134.287C337.25 134.139 336.529 133.926 335.938 133.649V131.347C337.324 131.976 338.932 132.29 340.762 132.29C342.481 132.29 343.729 131.911 344.506 131.153C345.3 130.414 345.698 129.286 345.698 127.77V126.356C344.478 127.817 342.685 128.547 340.319 128.547C338.969 128.547 337.758 128.251 336.686 127.659C335.614 127.068 334.773 126.236 334.163 125.164C333.553 124.092 333.248 122.863 333.248 121.476C333.248 120.071 333.544 118.842 334.135 117.788C334.745 116.716 335.577 115.884 336.631 115.293C337.703 114.701 338.904 114.405 340.235 114.405C341.474 114.405 342.518 114.59 343.369 114.96C344.238 115.311 345.042 115.903 345.781 116.735V114.821H348.498V127.465C348.498 129.739 347.861 131.477 346.585 132.678C345.328 133.898 343.387 134.508 340.762 134.508ZM340.873 126.329C342.019 126.329 343.027 126.024 343.896 125.414C344.783 124.803 345.384 123.99 345.698 122.973V119.979C345.347 118.944 344.737 118.13 343.868 117.539C343.017 116.947 342.019 116.651 340.873 116.651C339.967 116.651 339.145 116.855 338.405 117.261C337.684 117.65 337.111 118.213 336.686 118.953C336.28 119.692 336.076 120.533 336.076 121.476C336.076 122.437 336.28 123.288 336.686 124.027C337.111 124.748 337.684 125.312 338.405 125.719C339.145 126.125 339.967 126.329 340.873 126.329ZM362.37 108.749H368.609C370.698 108.749 372.509 109.137 374.044 109.913C375.578 110.69 376.752 111.799 377.565 113.241C378.397 114.683 378.813 116.383 378.813 118.343C378.813 121.559 377.879 123.999 376.012 125.663C374.164 127.308 371.567 128.131 368.221 128.131H362.37V108.749ZM368.193 125.774C370.781 125.774 372.722 125.136 374.016 123.861C375.31 122.585 375.957 120.746 375.957 118.343C375.957 116.125 375.319 114.368 374.044 113.074C372.787 111.78 370.984 111.133 368.637 111.133H365.198V125.774H368.193ZM381.866 114.821H384.584V117.206C385.138 116.393 385.915 115.792 386.913 115.404C387.93 115.015 389.103 114.821 390.434 114.821V117.012C389.011 117.012 387.791 117.243 386.774 117.705C385.758 118.167 385.055 118.897 384.667 119.896V128.131H381.866V114.821ZM399.422 128.547C396.964 128.547 395.032 127.937 393.627 126.717C392.241 125.478 391.547 123.741 391.547 121.504C391.547 119.323 392.167 117.594 393.405 116.319C394.662 115.043 396.446 114.405 398.757 114.405C400.291 114.405 401.594 114.701 402.666 115.293C403.739 115.866 404.543 116.67 405.079 117.705C405.633 118.722 405.911 119.886 405.911 121.199V122.585H394.209C394.302 123.842 394.829 124.785 395.79 125.414C396.77 126.024 398.091 126.329 399.755 126.329C400.605 126.329 401.465 126.255 402.334 126.107C403.203 125.94 403.97 125.728 404.635 125.469V127.715C404.044 127.955 403.258 128.149 402.278 128.297C401.317 128.464 400.365 128.547 399.422 128.547ZM403.276 120.617C403.239 119.36 402.824 118.389 402.029 117.705C401.252 117.003 400.143 116.651 398.701 116.651C397.296 116.651 396.206 117.012 395.429 117.733C394.653 118.454 394.246 119.415 394.209 120.617H403.276ZM413.741 128.547C412.133 128.547 410.839 128.14 409.859 127.327C408.898 126.495 408.417 125.377 408.417 123.972C408.417 122.493 408.879 121.356 409.804 120.561C410.746 119.748 412.077 119.341 413.796 119.341C415.627 119.341 417.179 119.711 418.455 120.45V119.757C418.455 118.703 418.131 117.927 417.484 117.428C416.856 116.91 415.858 116.651 414.49 116.651C413.676 116.651 412.881 116.735 412.105 116.901C411.347 117.049 410.663 117.261 410.053 117.539V115.265C410.608 115.006 411.329 114.803 412.216 114.655C413.103 114.489 413.963 114.405 414.795 114.405C416.994 114.405 418.621 114.895 419.675 115.875C420.747 116.836 421.283 118.176 421.283 119.896V128.131H418.649V126.634C418.076 127.262 417.392 127.743 416.597 128.075C415.821 128.39 414.869 128.547 413.741 128.547ZM414.434 126.412C415.322 126.412 416.126 126.236 416.847 125.885C417.568 125.534 418.104 125.044 418.455 124.415V122.613C417.253 121.837 415.913 121.448 414.434 121.448C413.362 121.448 412.558 121.661 412.022 122.086C411.504 122.493 411.245 123.121 411.245 123.972C411.245 125.598 412.308 126.412 414.434 126.412ZM424.758 114.821H427.42V116.735C428.049 115.958 428.761 115.376 429.555 114.988C430.35 114.6 431.173 114.405 432.023 114.405C433.095 114.405 433.946 114.59 434.574 114.96C435.203 115.311 435.665 115.857 435.961 116.596C436.552 115.875 437.273 115.33 438.123 114.96C438.992 114.59 439.861 114.405 440.73 114.405C442.357 114.405 443.53 114.821 444.251 115.653C444.972 116.467 445.333 117.677 445.333 119.286V128.131H442.615V119.646C442.615 118.555 442.412 117.788 442.005 117.345C441.599 116.882 440.905 116.651 439.926 116.651C438.521 116.651 437.375 117.261 436.487 118.481C436.524 118.759 436.543 119.212 436.543 119.84V128.131H433.826V119.646C433.826 118.555 433.641 117.788 433.271 117.345C432.901 116.882 432.236 116.651 431.275 116.651C429.87 116.651 428.613 117.446 427.504 119.036V128.131H424.758V114.821ZM453.712 128.547C452.788 128.547 451.808 128.427 450.773 128.186C449.737 127.964 448.924 127.659 448.333 127.271V124.887C449.053 125.312 449.885 125.663 450.828 125.94C451.771 126.199 452.686 126.329 453.573 126.329C454.571 126.329 455.302 126.208 455.764 125.968C456.226 125.728 456.457 125.34 456.457 124.803C456.457 124.397 456.346 124.073 456.124 123.833C455.921 123.574 455.56 123.343 455.043 123.14C454.544 122.936 453.786 122.696 452.769 122.419C451.678 122.105 450.81 121.79 450.163 121.476C449.534 121.143 449.053 120.727 448.721 120.228C448.406 119.729 448.249 119.082 448.249 118.287C448.249 117.012 448.748 116.051 449.747 115.404C450.763 114.738 452.122 114.405 453.823 114.405C454.71 114.405 455.579 114.489 456.429 114.655C457.279 114.821 457.963 115.052 458.481 115.348V117.677C457.945 117.363 457.279 117.114 456.485 116.929C455.708 116.744 454.913 116.651 454.1 116.651C453.12 116.651 452.372 116.772 451.854 117.012C451.336 117.252 451.078 117.677 451.078 118.287C451.078 118.676 451.189 118.99 451.41 119.23C451.632 119.47 451.983 119.683 452.464 119.868C452.963 120.034 453.749 120.256 454.821 120.533C456.503 120.995 457.668 121.541 458.315 122.169C458.98 122.798 459.313 123.667 459.313 124.776C459.313 125.922 458.842 126.837 457.899 127.521C456.956 128.205 455.56 128.547 453.712 128.547ZM472.078 108.749H475.017L479.343 123.473L483.613 108.749H485.831L490.074 123.473L494.399 108.749H497.339L491.682 128.131H488.992L484.695 113.49L480.424 128.131H477.735L472.078 108.749ZM501.049 112.215C500.587 112.215 500.199 112.058 499.885 111.744C499.57 111.429 499.413 111.041 499.413 110.579C499.413 110.117 499.57 109.729 499.885 109.414C500.199 109.1 500.587 108.943 501.049 108.943C501.53 108.943 501.927 109.1 502.242 109.414C502.574 109.729 502.741 110.117 502.741 110.579C502.741 111.041 502.574 111.429 502.242 111.744C501.927 112.058 501.53 112.215 501.049 112.215ZM499.635 114.821H502.491V128.131H499.635V114.821ZM511.475 128.547C510.126 128.547 509.081 128.159 508.342 127.382C507.621 126.606 507.26 125.506 507.26 124.083V116.984H505.236V114.821H507.26V110.828H510.089V114.821H513.36V116.984H510.089V123.888C510.089 124.776 510.255 125.404 510.588 125.774C510.939 126.144 511.567 126.329 512.473 126.329C513.009 126.329 513.545 126.208 514.081 125.968V128.186C513.379 128.427 512.51 128.547 511.475 128.547ZM516.716 107.64H519.517V116.651C520.792 115.154 522.493 114.405 524.619 114.405C526.393 114.405 527.715 114.877 528.584 115.82C529.453 116.762 529.887 118.029 529.887 119.618V128.131H527.087V119.896C527.087 117.733 526.051 116.651 523.981 116.651C523.094 116.651 522.262 116.864 521.485 117.289C520.728 117.696 520.071 118.324 519.517 119.175V128.131H516.716V107.64ZM543.605 108.749H552.506C554.225 108.749 555.556 109.193 556.499 110.08C557.441 110.967 557.913 112.261 557.913 113.962C557.913 114.923 557.682 115.773 557.219 116.513C556.776 117.234 556.184 117.77 555.445 118.121C557.515 118.731 558.55 120.238 558.55 122.641C558.55 123.768 558.301 124.748 557.802 125.58C557.321 126.393 556.656 127.022 555.805 127.465C554.955 127.909 554.012 128.131 552.977 128.131H543.605V108.749ZM552.145 117.067C553.051 117.067 553.763 116.818 554.28 116.319C554.798 115.82 555.057 115.08 555.057 114.1C555.057 112.973 554.798 112.187 554.28 111.744C553.781 111.281 553.005 111.05 551.951 111.05H546.433V117.067H552.145ZM552.339 125.829C553.43 125.829 554.262 125.589 554.835 125.108C555.408 124.628 555.694 123.805 555.694 122.641C555.694 121.476 555.389 120.644 554.779 120.145C554.188 119.646 553.291 119.396 552.09 119.396H546.433V125.829H552.339ZM568.932 128.547C566.474 128.547 564.542 127.937 563.137 126.717C561.751 125.478 561.057 123.741 561.057 121.504C561.057 119.323 561.677 117.594 562.915 116.319C564.172 115.043 565.956 114.405 568.267 114.405C569.801 114.405 571.104 114.701 572.176 115.293C573.249 115.866 574.053 116.67 574.589 117.705C575.143 118.722 575.421 119.886 575.421 121.199V122.585H563.719C563.812 123.842 564.339 124.785 565.3 125.414C566.28 126.024 567.601 126.329 569.265 126.329C570.115 126.329 570.975 126.255 571.844 126.107C572.713 125.94 573.48 125.728 574.145 125.469V127.715C573.554 127.955 572.768 128.149 571.788 128.297C570.827 128.464 569.875 128.547 568.932 128.547ZM572.786 120.617C572.749 119.36 572.334 118.389 571.539 117.705C570.762 117.003 569.653 116.651 568.211 116.651C566.806 116.651 565.716 117.012 564.939 117.733C564.163 118.454 563.756 119.415 563.719 120.617H572.786ZM583.251 128.547C581.643 128.547 580.349 128.14 579.369 127.327C578.408 126.495 577.927 125.377 577.927 123.972C577.927 122.493 578.389 121.356 579.314 120.561C580.256 119.748 581.587 119.341 583.306 119.341C585.137 119.341 586.689 119.711 587.965 120.45V119.757C587.965 118.703 587.641 117.927 586.994 117.428C586.366 116.91 585.368 116.651 584 116.651C583.186 116.651 582.391 116.735 581.615 116.901C580.857 117.049 580.173 117.261 579.563 117.539V115.265C580.118 115.006 580.839 114.803 581.726 114.655C582.613 114.489 583.473 114.405 584.305 114.405C586.504 114.405 588.131 114.895 589.185 115.875C590.257 116.836 590.793 118.176 590.793 119.896V128.131H588.159V126.634C587.586 127.262 586.902 127.743 586.107 128.075C585.331 128.39 584.379 128.547 583.251 128.547ZM583.944 126.412C584.832 126.412 585.636 126.236 586.357 125.885C587.078 125.534 587.614 125.044 587.965 124.415V122.613C586.763 121.837 585.423 121.448 583.944 121.448C582.872 121.448 582.068 121.661 581.532 122.086C581.014 122.493 580.755 123.121 580.755 123.972C580.755 125.598 581.818 126.412 583.944 126.412ZM594.268 114.821H596.93V116.735C597.559 115.958 598.271 115.376 599.065 114.988C599.86 114.6 600.683 114.405 601.533 114.405C602.605 114.405 603.456 114.59 604.084 114.96C604.713 115.311 605.175 115.857 605.471 116.596C606.062 115.875 606.783 115.33 607.633 114.96C608.502 114.59 609.371 114.405 610.24 114.405C611.867 114.405 613.04 114.821 613.761 115.653C614.482 116.467 614.843 117.677 614.843 119.286V128.131H612.125V119.646C612.125 118.555 611.922 117.788 611.515 117.345C611.109 116.882 610.415 116.651 609.436 116.651C608.031 116.651 606.885 117.261 605.997 118.481C606.034 118.759 606.053 119.212 606.053 119.84V128.131H603.336V119.646C603.336 118.555 603.151 117.788 602.781 117.345C602.411 116.882 601.746 116.651 600.785 116.651C599.38 116.651 598.123 117.446 597.014 119.036V128.131H594.268V114.821ZM623.222 128.547C622.298 128.547 621.318 128.427 620.283 128.186C619.247 127.964 618.434 127.659 617.843 127.271V124.887C618.563 125.312 619.395 125.663 620.338 125.94C621.281 126.199 622.196 126.329 623.083 126.329C624.081 126.329 624.812 126.208 625.274 125.968C625.736 125.728 625.967 125.34 625.967 124.803C625.967 124.397 625.856 124.073 625.634 123.833C625.431 123.574 625.07 123.343 624.553 123.14C624.054 122.936 623.296 122.696 622.279 122.419C621.188 122.105 620.32 121.79 619.673 121.476C619.044 121.143 618.563 120.727 618.231 120.228C617.916 119.729 617.759 119.082 617.759 118.287C617.759 117.012 618.258 116.051 619.257 115.404C620.273 114.738 621.632 114.405 623.333 114.405C624.22 114.405 625.089 114.489 625.939 114.655C626.789 114.821 627.473 115.052 627.991 115.348V117.677C627.455 117.363 626.789 117.114 625.995 116.929C625.218 116.744 624.423 116.651 623.61 116.651C622.63 116.651 621.882 116.772 621.364 117.012C620.846 117.252 620.588 117.677 620.588 118.287C620.588 118.676 620.699 118.99 620.92 119.23C621.142 119.47 621.493 119.683 621.974 119.868C622.473 120.034 623.259 120.256 624.331 120.533C626.013 120.995 627.178 121.541 627.825 122.169C628.49 122.798 628.823 123.667 628.823 124.776C628.823 125.922 628.352 126.837 627.409 127.521C626.466 128.205 625.07 128.547 623.222 128.547Z" fill="black"/>
    </svg>
  